<svg width="29" height="29" viewBox="0 0 29 29" fill="none" xmlns="http://www.w3.org/2000/svg">
<path d="M28.3386 10.958C27.6909 8.53504 26.4718 6.2431 24.7459 4.42048C23.2659 2.8575 21.3926 1.78507 19.365 1.10187C18.1679 0.698563 16.9309 0.434563 15.6714 0.33707C14.2764 0.229016 12.8709 0.36011 11.482 0.488003C8.61034 0.763203 6.15114 2.20427 4.04373 4.10976C2.05546 5.90742 0.995515 8.41931 0.424208 10.9977C-0.592006 15.5843 0.535568 20.6103 3.49471 24.2703C6.88938 28.4689 12.6678 29.488 17.754 28.4973C20.454 27.9714 23.1118 26.7317 24.9746 24.6725C26.7218 22.7413 27.7149 20.231 28.2975 17.7249C28.8086 15.5266 28.9259 13.1549 28.3386 10.958ZM20.5252 2.69771C22.8723 3.77803 24.6859 5.62059 25.9329 7.84747C22.9946 8.07723 21.046 10.3403 20.0053 12.9584C19.0871 12.5414 18.139 12.1966 17.177 11.9266C17.4893 8.36608 17.1122 4.7295 15.7683 1.41184C16.0216 1.43168 16.2748 1.45792 16.5272 1.49387C17.892 1.688 19.2743 2.12192 20.5252 2.69771ZM10.1345 5.89675C9.72543 4.64683 8.99807 3.33206 7.84042 2.67403C8.97269 2.07883 10.2007 1.67744 11.4819 1.55467C12.5175 1.45931 13.5613 1.36768 14.6031 1.3679C14.6071 1.37878 14.6108 1.38955 14.6156 1.40043C16.032 4.60075 16.4167 8.17718 16.1307 11.6629C15.8298 11.5964 15.528 11.5371 15.2259 11.4855C13.7128 11.2277 12.2178 11.1902 10.7246 11.2835C10.9046 9.49483 10.6908 7.59627 10.1345 5.89675ZM6.69066 3.36555C8.06954 3.71062 8.77407 5.12043 9.17599 6.39851C9.67541 7.98656 9.80938 9.71787 9.64767 11.3722C8.76202 11.4621 7.87562 11.5903 6.98506 11.7399C5.67285 11.9604 4.32725 12.1154 3.02815 12.3972C2.45343 12.5218 1.81599 12.7311 1.2001 12.7938C1.42058 10.6797 2.08671 8.59062 3.16437 6.79222C4.00874 5.38272 5.34154 4.27744 6.69066 3.36555ZM1.12575 13.8686C1.71967 13.8237 2.33855 13.6395 2.89215 13.5182C3.9953 13.2766 5.12021 13.1381 6.23327 12.9462C7.30858 12.7607 8.37365 12.5897 9.43935 12.4701C9.03082 13.8914 8.13482 15.1829 7.22026 16.3124C5.95562 17.8746 4.25279 19.5327 2.23199 20.0311C1.65151 18.59 1.29322 17.0546 1.1665 15.5306C1.12074 14.9811 1.10783 14.4255 1.12575 13.8686ZM2.67199 21.0206C4.8065 20.4491 6.61717 18.7119 7.97439 17.0666C9.12191 15.6754 10.1304 14.1199 10.5469 12.3666C11.7924 12.2751 13.0436 12.2722 14.3178 12.4228C14.8858 12.4899 15.4556 12.5886 16.0231 12.7161C15.9494 13.3276 15.8564 13.9349 15.7452 14.5353C15.3318 16.7633 14.646 18.9491 13.71 21.0127C12.6975 23.2446 11.322 25.2582 9.88938 27.2357C9.39701 27.0951 8.91626 26.9281 8.45343 26.7318C5.83754 25.6227 3.89813 23.5139 2.67199 21.0206ZM16.7862 27.5908C14.9334 27.8914 12.9117 27.8836 11.0047 27.5047C12.3995 25.5642 13.7084 23.5849 14.6999 21.399C15.6999 19.1947 16.4077 16.865 16.835 14.4836C16.9242 13.9868 17 13.4864 17.0632 12.9837C17.9446 13.2387 18.8141 13.5635 19.6571 13.9524C19.5918 14.1674 19.532 14.383 19.4782 14.5989C18.5221 18.4304 18.9261 22.8972 20.9184 26.3469C19.6141 26.9657 18.1927 27.3626 16.7862 27.5908ZM24.2205 23.9183C23.541 24.6922 22.739 25.328 21.8623 25.8462C20.0355 22.7188 19.6737 18.7244 20.4266 15.2278C20.4833 14.9643 20.55 14.6988 20.6254 14.4336C22.955 15.6775 25.0206 17.4208 26.4677 19.5358C26.5132 19.6022 26.5663 19.6529 26.6237 19.6906C26.0736 21.2301 25.3026 22.6859 24.2205 23.9183ZM27.3987 16.8381C27.2903 17.3841 27.1608 17.9298 27.0095 18.4704C25.435 16.3662 23.322 14.6546 20.9614 13.425C21.8887 11.01 23.6573 8.8783 26.4648 8.89312C27.6061 11.3965 27.9381 14.1203 27.3987 16.8381Z" fill="#DDE8F0"/>
</svg>
