<svg width="32" height="32" viewBox="0 0 32 32" fill="none" xmlns="http://www.w3.org/2000/svg">
<path fill-rule="evenodd" clip-rule="evenodd" d="M12.4444 0H26.6667C29.6123 0 32 2.14902 32 4.8V27.2C32 29.851 29.6123 32 26.6667 32H12.4444C11.4626 32 10.6667 31.2837 10.6667 30.4C10.6667 29.5163 11.4626 28.8 12.4444 28.8H26.6667C27.6485 28.8 28.4444 28.0837 28.4444 27.2V4.8C28.4444 3.91634 27.6485 3.2 26.6667 3.2H12.4444C11.4626 3.2 10.6667 2.48366 10.6667 1.6C10.6667 0.716352 11.4626 0 12.4444 0ZM12.9652 8.46862C13.6594 7.84379 14.7851 7.84379 15.4793 8.46862L22.5904 14.8686C22.9237 15.1686 23.1111 15.5757 23.1111 16C23.1111 16.4243 22.9237 16.8314 22.5904 17.1314L15.4793 23.5314C14.7851 24.1562 13.6594 24.1562 12.9652 23.5314C12.2709 22.9066 12.2709 21.8934 12.9652 21.2686L17.0414 17.6H1.77778C0.795947 17.6 0 16.8837 0 16C0 15.1163 0.795947 14.4 1.77778 14.4H17.0414L12.9652 10.7314C12.2709 10.1065 12.2709 9.09347 12.9652 8.46862Z" fill="#F7A325"/>
</svg>
