<svg width="45" height="45" viewBox="0 0 45 45" fill="none" xmlns="http://www.w3.org/2000/svg">
<path d="M44.5035 17.8125H22.5V27.1875H34.6616C32.7704 32.103 28.0822 35.625 22.5 35.625C15.2513 35.625 9.375 29.7487 9.375 22.5C9.375 15.2512 15.2513 9.375 22.5 9.375C25.1285 9.375 27.5511 10.1825 29.6035 11.5138C29.9176 11.7179 30.2417 11.9096 30.5368 12.1389L37.3565 5.63267L37.2027 5.51434C33.2568 2.0945 28.1316 0 22.5 0C10.0735 0 0 10.0735 0 22.5C0 34.9263 10.0735 45 22.5 45C33.9706 45 43.4165 36.4102 44.8051 25.3159C44.9223 24.3941 45 23.4537 45 22.5C45 20.8915 44.8243 19.3253 44.5035 17.8125Z" fill="#171921"/>
</svg>
