<svg width="32" height="32" viewBox="0 0 32 32" fill="none" xmlns="http://www.w3.org/2000/svg">
<path d="M31.78 15.055L28.865 12.14L17.25 0.512504C17.0875 0.349983 16.8946 0.221063 16.6823 0.133106C16.4699 0.0451489 16.2424 -0.00012207 16.0125 -0.00012207C15.7827 -0.00012207 15.5551 0.0451489 15.3428 0.133106C15.1305 0.221063 14.9375 0.349983 14.775 0.512504L3.14253 12.1325L0.22003 15.055C0.0875496 15.1972 0.0154264 15.3852 0.0188546 15.5795C0.0222829 15.7738 0.100995 15.9592 0.238408 16.0966C0.375821 16.234 0.561206 16.3127 0.755507 16.3162C0.949808 16.3196 1.13785 16.2475 1.28003 16.115L2.92253 14.4725V30.25C2.92253 30.7141 3.1069 31.1592 3.43509 31.4874C3.76328 31.8156 4.2084 32 4.67253 32H11.5C11.9642 32 12.4093 31.8156 12.7375 31.4874C13.0657 31.1592 13.25 30.7141 13.25 30.25V20.25C13.25 20.1837 13.2764 20.1201 13.3233 20.0732C13.3701 20.0263 13.4337 20 13.5 20H18.5C18.5663 20 18.6299 20.0263 18.6768 20.0732C18.7237 20.1201 18.75 20.1837 18.75 20.25V30.25C18.75 30.7141 18.9344 31.1592 19.2626 31.4874C19.5908 31.8156 20.0359 32 20.5 32H27.335C27.5648 32 27.7924 31.9547 28.0047 31.8668C28.217 31.7788 28.41 31.6499 28.5725 31.4874C28.735 31.3249 28.8639 31.132 28.9518 30.9197C29.0398 30.7074 29.085 30.4798 29.085 30.25V14.48L30.72 16.115C30.8622 16.2475 31.0503 16.3196 31.2446 16.3162C31.4389 16.3127 31.6242 16.234 31.7617 16.0966C31.8991 15.9592 31.9778 15.7738 31.9812 15.5795C31.9846 15.3852 31.9125 15.1972 31.78 15.055ZM27.585 30.25C27.585 30.3163 27.5587 30.3799 27.5118 30.4268C27.4649 30.4737 27.4013 30.5 27.335 30.5H20.5C20.4337 30.5 20.3701 30.4737 20.3233 30.4268C20.2764 30.3799 20.25 30.3163 20.25 30.25V20.25C20.25 19.7859 20.0657 19.3408 19.7375 19.0126C19.4093 18.6844 18.9642 18.5 18.5 18.5H13.5C13.0359 18.5 12.5908 18.6844 12.2626 19.0126C11.9344 19.3408 11.75 19.7859 11.75 20.25V30.25C11.75 30.3163 11.7237 30.3799 11.6768 30.4268C11.6299 30.4737 11.5663 30.5 11.5 30.5H4.67253C4.60623 30.5 4.54264 30.4737 4.49575 30.4268C4.44887 30.3799 4.42253 30.3163 4.42253 30.25V12.975L15.8225 1.5725C15.8694 1.52594 15.9327 1.49981 15.9988 1.49981C16.0648 1.49981 16.1282 1.52594 16.175 1.5725L27.5825 12.98L27.585 30.25Z" fill="#DDE8F0"/>
</svg>
