<svg width="29" height="29" viewBox="0 0 29 29" fill="none" xmlns="http://www.w3.org/2000/svg">
<path d="M28.3386 10.958C27.6909 8.53504 26.4718 6.2431 24.746 4.42048C23.266 2.8575 21.3927 1.78507 19.3651 1.10187C18.1679 0.698563 16.9309 0.434563 15.6714 0.33707C14.2764 0.229016 12.871 0.36011 11.4821 0.488003C8.6104 0.763203 6.1512 2.20427 4.04379 4.10976C2.05552 5.90742 0.995576 8.41931 0.424269 10.9977C-0.591945 15.5843 0.535629 20.6103 3.49478 24.2703C6.88944 28.4689 12.6679 29.488 17.7541 28.4973C20.454 27.9714 23.1118 26.7317 24.9747 24.6725C26.7219 22.7413 27.7149 20.231 28.2976 17.7249C28.8087 15.5266 28.9259 13.1549 28.3386 10.958ZM20.5253 2.69771C22.8724 3.77803 24.6859 5.62059 25.933 7.84747C22.9946 8.07723 21.046 10.3403 20.0054 12.9584C19.0872 12.5414 18.139 12.1966 17.177 11.9266C17.4893 8.36608 17.1123 4.7295 15.7684 1.41184C16.0217 1.43168 16.2748 1.45792 16.5273 1.49387C17.8921 1.688 19.2744 2.12192 20.5253 2.69771ZM10.1346 5.89675C9.7255 4.64683 8.99814 3.33206 7.84048 2.67403C8.97275 2.07883 10.2008 1.67744 11.482 1.55467C12.5176 1.45931 13.5613 1.36768 14.6031 1.3679C14.6072 1.37878 14.6108 1.38955 14.6156 1.40043C16.0321 4.60075 16.4168 8.17718 16.1307 11.6629C15.8298 11.5964 15.5281 11.5371 15.226 11.4855C13.7129 11.2277 12.2179 11.1902 10.7246 11.2835C10.9047 9.49483 10.6908 7.59627 10.1346 5.89675ZM6.69072 3.36555C8.0696 3.71062 8.77414 5.12043 9.17606 6.39851C9.67547 7.98656 9.80944 9.71787 9.64774 11.3722C8.76208 11.4621 7.87568 11.5903 6.98512 11.7399C5.67291 11.9604 4.32731 12.1154 3.02822 12.3972C2.4535 12.5218 1.81606 12.7311 1.20016 12.7938C1.42064 10.6797 2.08678 8.59062 3.16443 6.79222C4.0088 5.38272 5.3416 4.27744 6.69072 3.36555ZM1.12582 13.8686C1.71974 13.8237 2.33862 13.6395 2.89222 13.5182C3.99536 13.2766 5.12027 13.1381 6.23334 12.9462C7.30864 12.7607 8.37371 12.5897 9.43942 12.4701C9.03088 13.8914 8.13488 15.1829 7.22032 16.3124C5.95568 17.8746 4.25286 19.5327 2.23206 20.0311C1.65158 18.59 1.29328 17.0546 1.16656 15.5306C1.1208 14.9811 1.1079 14.4255 1.12582 13.8686ZM2.67206 21.0206C4.80656 20.4491 6.61723 18.7119 7.97446 17.0666C9.12198 15.6754 10.1305 14.1199 10.5469 12.3666C11.7925 12.2751 13.0437 12.2722 14.3178 12.4228C14.8858 12.4899 15.4556 12.5886 16.0232 12.7161C15.9495 13.3276 15.8565 13.9349 15.7452 14.5353C15.3319 16.7633 14.646 18.9491 13.71 21.0127C12.6975 23.2446 11.3221 25.2582 9.88944 27.2357C9.39707 27.0951 8.91632 26.9281 8.4535 26.7318C5.8376 25.6227 3.89819 23.5139 2.67206 21.0206ZM16.7863 27.5908C14.9335 27.8914 12.9117 27.8836 11.0047 27.5047C12.3995 25.5642 13.7084 23.5849 14.7 21.399C15.7 19.1947 16.4077 16.865 16.835 14.4836C16.9242 13.9868 17.0001 13.4864 17.0633 12.9837C17.9447 13.2387 18.8141 13.5635 19.6571 13.9524C19.5918 14.1674 19.5321 14.383 19.4782 14.5989C18.5222 18.4304 18.9261 22.8972 20.9185 26.3469C19.6141 26.9657 18.1928 27.3626 16.7863 27.5908ZM24.2205 23.9183C23.5411 24.6922 22.739 25.328 21.8623 25.8462C20.0356 22.7188 19.6738 18.7244 20.4266 15.2278C20.4834 14.9643 20.55 14.6988 20.6254 14.4336C22.955 15.6775 25.0206 17.4208 26.4678 19.5358C26.5132 19.6022 26.5663 19.6529 26.6237 19.6906C26.0737 21.2301 25.3027 22.6859 24.2205 23.9183ZM27.3988 16.8381C27.2904 17.3841 27.1609 17.9298 27.0095 18.4704C25.435 16.3662 23.3221 14.6546 20.9614 13.425C21.8888 11.01 23.6573 8.8783 26.4649 8.89312C27.6061 11.3965 27.9382 14.1203 27.3988 16.8381Z" fill="#D9D9D9"/>
</svg>
