<svg width="38" height="56" viewBox="0 0 38 56" fill="none" xmlns="http://www.w3.org/2000/svg">
<g filter="url(#filter0_d_836_5483)">
<path d="M12.5181 42.6007C12.4258 42.6374 12.3519 42.6923 12.2781 42.7656C11.5396 43.3887 10.8011 44.0118 10.0626 44.6349C9.7118 44.9465 9.65641 45.2214 9.93335 45.5879C10.9303 46.9074 11.9088 48.2085 12.9058 49.528C13.1089 49.7846 13.3674 49.8762 13.6813 49.7846C14.1797 49.638 14.6598 49.4914 15.1583 49.3448L18.3523 48.4285V47.9703C18.3523 47.952 18.3523 47.9153 18.3523 47.8787C18.3338 47.054 18.3523 46.2293 18.3523 45.423C16.6907 44.6166 15.0475 43.8286 13.4228 43.0222C13.2566 42.9306 13.072 42.8206 12.9428 42.674C12.795 42.5274 12.6658 42.5274 12.5181 42.6007ZM23.9464 38.4406C20.5124 40.09 17.1338 40.09 13.7182 38.4406C13.7182 38.5506 13.6997 38.6422 13.6997 38.7339C13.6997 39.7235 13.6997 40.6948 13.6997 41.6844C13.6997 41.8676 13.7551 41.9593 13.9213 42.0509C15.4721 42.8023 17.0045 43.5353 18.5554 44.2867C18.74 44.3784 18.9062 44.3784 19.0908 44.2867C20.5124 43.5903 21.9156 42.9123 23.3556 42.2342C23.7803 42.0326 23.9834 41.7394 23.9649 41.2446C23.928 40.3282 23.9464 39.4119 23.9464 38.4406ZM4.33919 25.6672C4.02532 27.1883 5.20693 28.7643 6.75779 28.8926C7.10858 28.9293 7.47783 28.8926 7.84708 28.8926C7.84708 27.06 7.84708 25.2457 7.84708 23.4314C6.00082 23.1931 4.67151 24.0911 4.33919 25.6672ZM29.7991 28.911C31.1099 29.0576 32.2361 28.7643 32.9931 27.6098C33.6393 26.6018 33.5285 25.5939 32.9193 24.6409C32.1992 23.5047 31.0545 23.3581 29.8175 23.468C29.7991 25.264 29.7991 27.0783 29.7991 28.911ZM29.5406 17.6586C29.8175 18.0251 29.9468 18.465 29.9468 18.9414C29.9468 19.986 29.9468 21.0306 29.9468 22.0936C29.9468 22.1669 29.9468 22.2402 29.9468 22.3318C30.7038 22.2952 31.4238 22.3501 32.1254 22.625C32.9008 21.2322 33.6947 19.8761 33.547 18.2084C33.4916 17.6586 33.3808 17.1271 33.2516 16.5957C33.1777 16.3025 33.1593 16.0276 33.2147 15.7343C33.4178 14.873 33.6208 14.03 33.7685 13.1503C34.0639 11.3727 33.547 9.83328 32.3469 8.49546C31.9961 8.1106 31.5715 7.7624 31.2022 7.39588C31.073 7.26759 30.9438 7.10266 30.8699 6.93772C29.9653 5.2517 28.6175 4.1338 26.6974 3.76727C26.0512 3.63899 25.405 3.62066 24.7588 3.67564C24.4449 3.71229 24.1495 3.65731 23.8726 3.54736C22.9864 3.19916 22.1002 2.85096 21.2324 2.48443C19.7001 1.86134 18.1677 1.89799 16.6537 2.52108C15.8598 2.85096 15.0475 3.1625 14.2536 3.49238C13.829 3.67564 13.3674 3.73062 12.9058 3.69397C10.5057 3.45572 8.0871 4.81187 7.07165 6.95605C6.97934 7.13931 6.83164 7.30425 6.68394 7.45086C6.00082 8.05563 5.33617 8.67872 4.8746 9.48508C4.06225 10.9145 3.91455 12.4356 4.32072 14.0117C4.46843 14.6348 4.61613 15.2579 4.74537 15.881C4.78229 16.0825 4.76383 16.3025 4.70844 16.5041C4.32073 17.7686 4.22841 19.0514 4.68998 20.2976C4.96692 21.0673 5.3731 21.782 5.68696 22.4784C6.38854 22.4051 7.01626 22.3318 7.68092 22.2585C7.68092 22.2219 7.68092 22.1486 7.68092 22.0752C7.68092 21.1406 7.69938 20.206 7.68092 19.253C7.62553 17.9518 8.75175 16.8339 10.2472 17.1821C11.2811 17.4204 12.2781 17.3837 13.2566 16.9805C13.5151 16.8706 13.7551 16.7606 13.9951 16.614C14.8259 16.1009 15.6752 16.1192 16.506 16.614C16.9861 16.9072 17.503 17.1271 18.0569 17.2371C19.1646 17.4387 20.1985 17.2188 21.1401 16.614C22.0079 16.0642 22.8572 16.0276 23.7434 16.5224C24.888 17.1271 26.0881 17.2004 27.3251 16.9256C28.2113 16.724 28.9683 16.9072 29.5406 17.6586ZM28.7283 30.0655C28.7652 29.754 28.839 22.7533 28.839 22.6617C28.839 21.4522 28.839 20.2609 28.839 19.0514C28.839 18.2084 28.359 17.8419 27.5282 18.0251C26.4389 18.2817 25.3681 18.3 24.2972 17.9702C23.8911 17.8419 23.5033 17.6769 23.1156 17.4753C22.6541 17.2371 22.2479 17.2554 21.8233 17.5303C20.974 18.0801 20.0324 18.41 19.0169 18.4466C17.9276 18.4833 16.9122 18.2084 15.9891 17.6403C15.4721 17.3287 15.029 17.3287 14.5121 17.622C13.1274 18.4466 11.6504 18.6482 10.0811 18.3C9.49025 18.1717 9.08407 18.3367 8.89945 18.7948C8.84406 18.9231 8.8256 19.0697 8.80713 19.2163C8.78867 19.7845 8.80713 20.3526 8.80713 20.9024C8.80713 21.4705 8.80713 22.0386 8.80713 22.625C8.80713 22.7167 8.88098 30.0838 8.95483 30.5053C9.45332 33.4009 11.0226 35.6001 13.4597 37.2128C13.552 37.2677 13.6813 37.2861 13.792 37.3227C13.9582 37.3777 14.1428 37.396 14.2905 37.4693C15.7306 38.1474 17.2445 38.5689 18.8508 38.5689C20.4201 38.5689 21.8786 38.1657 23.3003 37.5243C23.5033 37.4327 23.7434 37.3777 23.9649 37.3227C24.0203 37.3044 24.0941 37.2861 24.1495 37.2494C26.7343 35.5451 28.2852 33.1443 28.7283 30.0655ZM27.5651 44.6166C26.8635 44.0118 26.1435 43.4254 25.4419 42.8389C25.3496 42.7473 25.2204 42.674 25.1096 42.6374C24.9065 42.564 24.7403 42.6007 24.5742 42.7473C24.3526 42.9489 24.0941 43.1138 23.8357 43.2604C22.4325 43.9568 21.0294 44.6166 19.6262 45.2947C19.5708 45.3313 19.497 45.4413 19.497 45.5146C19.4785 45.9544 19.497 46.3759 19.497 46.8158V48.007C19.497 48.0253 19.497 48.0436 19.497 48.0619V48.3735L21.6017 49.0882C21.6202 49.0882 21.6386 49.1065 21.6571 49.1065C21.694 49.1249 21.7309 49.1249 21.7679 49.1432C21.8786 49.1798 21.9894 49.2165 22.0817 49.2348C22.6725 49.4181 23.2633 49.6014 23.8726 49.7846C24.3157 49.9129 24.5557 49.8579 24.8327 49.4731C25.7927 48.1902 26.7528 46.9074 27.7128 45.6429C27.9898 45.2214 27.9528 44.9465 27.5651 44.6166Z" fill="white"/>
</g>
<defs>
<filter id="filter0_d_836_5483" x="0.102539" y="0.0349121" width="37.7476" height="55.8118" filterUnits="userSpaceOnUse" color-interpolation-filters="sRGB">
<feFlood flood-opacity="0" result="BackgroundImageFix"/>
<feColorMatrix in="SourceAlpha" type="matrix" values="0 0 0 0 0 0 0 0 0 0 0 0 0 0 0 0 0 0 127 0" result="hardAlpha"/>
<feOffset dy="2"/>
<feGaussianBlur stdDeviation="2"/>
<feComposite in2="hardAlpha" operator="out"/>
<feColorMatrix type="matrix" values="0 0 0 0 0 0 0 0 0 0 0 0 0 0 0 0 0 0 0.25 0"/>
<feBlend mode="normal" in2="BackgroundImageFix" result="effect1_dropShadow_836_5483"/>
<feBlend mode="normal" in="SourceGraphic" in2="effect1_dropShadow_836_5483" result="shape"/>
</filter>
</defs>
</svg>
