<svg width="32" height="32" viewBox="0 0 32 32" fill="none" xmlns="http://www.w3.org/2000/svg">
<path d="M16.0003 1.28003C7.87163 1.28003 1.28027 7.87075 1.28027 16C1.28027 24.1293 7.87163 30.72 16.0003 30.72C24.1289 30.72 30.7203 24.1293 30.7203 16C30.7203 7.87075 24.1289 1.28003 16.0003 1.28003Z" stroke="white" stroke-miterlimit="10" stroke-linecap="round" stroke-linejoin="round"/>
<path d="M11.9744 22.2202L9.47266 14.5005L16.0167 9.72998L22.5619 14.5005L20.0627 22.2202H11.9744Z" stroke="white" stroke-miterlimit="10" stroke-linecap="round" stroke-linejoin="round"/>
<path d="M21.5925 2.42432L16.0168 4.8032L10.4424 2.42432" stroke="white" stroke-miterlimit="10" stroke-linecap="round" stroke-linejoin="round"/>
<path d="M4.89336 6.46777L5.42904 12.5241L1.44824 17.1065" stroke="white" stroke-miterlimit="10" stroke-linecap="round" stroke-linejoin="round"/>
<path d="M3.56836 23.6523L9.47364 25.0123L12.5898 30.2258" stroke="white" stroke-miterlimit="10" stroke-linecap="round" stroke-linejoin="round"/>
<path d="M19.4482 30.2259L22.5618 25.0099L28.4652 23.6499" stroke="white" stroke-miterlimit="10" stroke-linecap="round" stroke-linejoin="round"/>
<path d="M30.5875 17.1052L26.6035 12.5203L27.1386 6.46777" stroke="white" stroke-miterlimit="10" stroke-linecap="round" stroke-linejoin="round"/>
<path d="M16.0166 4.80322V9.72994" stroke="white" stroke-miterlimit="10" stroke-linecap="round" stroke-linejoin="round"/>
<path d="M22.5615 14.6918L26.6031 12.5203" stroke="white" stroke-miterlimit="10" stroke-linecap="round" stroke-linejoin="round"/>
<path d="M20.0625 22.2202L22.5617 25.01" stroke="white" stroke-miterlimit="10" stroke-linecap="round" stroke-linejoin="round"/>
<path d="M11.9741 22.2202L9.47363 25.0125" stroke="white" stroke-miterlimit="10" stroke-linecap="round" stroke-linejoin="round"/>
<path d="M5.42871 12.5242L9.47223 14.5005" stroke="white" stroke-miterlimit="10" stroke-linecap="round" stroke-linejoin="round"/>
</svg>
