<svg width="385" height="386" viewBox="0 0 385 386" fill="none" xmlns="http://www.w3.org/2000/svg">
<circle cx="193" cy="193" r="129" fill="#D9D9D9"/>
<path d="M231.312 260.188H144.688C140.858 260.188 137.186 258.666 134.479 255.959C131.771 253.251 130.25 249.579 130.25 245.75V192.812C130.25 188.983 131.771 185.311 134.479 182.604C137.186 179.896 140.858 178.375 144.688 178.375H231.312C235.142 178.375 238.814 179.896 241.521 182.604C244.229 185.311 245.75 188.983 245.75 192.812V245.75C245.75 249.579 244.229 253.251 241.521 255.959C238.814 258.666 235.142 260.188 231.312 260.188ZM144.688 188C143.411 188 142.187 188.507 141.285 189.41C140.382 190.312 139.875 191.536 139.875 192.812V245.75C139.875 247.026 140.382 248.25 141.285 249.153C142.187 250.055 143.411 250.562 144.688 250.562H231.312C232.589 250.562 233.813 250.055 234.715 249.153C235.618 248.25 236.125 247.026 236.125 245.75V192.812C236.125 191.536 235.618 190.312 234.715 189.41C233.813 188.507 232.589 188 231.312 188H144.688Z" fill="#171921"/>
<path d="M226.5 188H149.5C148.224 188 147 187.493 146.097 186.59C145.195 185.688 144.688 184.464 144.688 183.188V154.312C144.688 144.102 148.744 134.309 155.964 127.089C163.184 119.869 172.977 115.813 183.188 115.812H192.812C203.023 115.812 212.816 119.869 220.036 127.089C227.256 134.309 231.312 144.102 231.312 154.312V183.188C231.312 184.464 230.805 185.688 229.903 186.59C229 187.493 227.776 188 226.5 188ZM154.312 178.375H221.688V154.312C221.688 146.654 218.645 139.31 213.23 133.895C207.815 128.48 200.471 125.438 192.812 125.438H183.188C175.529 125.438 168.185 128.48 162.77 133.895C157.355 139.31 154.312 146.654 154.312 154.312V178.375Z" fill="#171921"/>
<path d="M184.901 233.752C184.901 232.28 185.04 230.862 185.317 229.496C185.616 228.11 186.096 226.83 186.757 225.656C187.333 224.526 187.973 223.63 188.677 222.968C189.381 222.286 190.17 221.614 191.045 220.952C191.92 220.27 192.89 219.363 193.957 218.232C194.832 217.272 195.408 216.323 195.685 215.384C195.962 214.424 196.101 213.4 196.101 212.312C196.101 211.608 196.026 210.947 195.877 210.328C195.728 209.71 195.461 209.176 195.077 208.728C194.48 207.939 193.712 207.384 192.773 207.064C191.834 206.723 190.832 206.552 189.765 206.552C188.89 206.552 188.048 206.67 187.237 206.904C186.448 207.118 185.776 207.459 185.221 207.928C184.581 208.44 184.112 209.07 183.813 209.816C183.514 210.563 183.376 211.384 183.397 212.28H175.269C175.482 210.147 176.058 208.174 176.997 206.36C177.957 204.526 179.216 203.064 180.773 201.976C181.989 201.08 183.354 200.408 184.869 199.96C186.405 199.512 187.941 199.288 189.477 199.288C191.824 199.288 194.032 199.651 196.101 200.376C198.192 201.102 199.93 202.296 201.317 203.96C202.277 205.048 203.002 206.307 203.493 207.736C204.005 209.166 204.261 210.616 204.261 212.088C204.261 214.286 203.781 216.291 202.821 218.104C201.882 219.918 200.688 221.592 199.237 223.128C198.554 223.854 197.904 224.494 197.285 225.048C196.666 225.603 196.09 226.147 195.557 226.68C195.045 227.192 194.618 227.736 194.277 228.312C193.68 229.315 193.328 230.168 193.221 230.872C193.114 231.555 193.061 232.515 193.061 233.752H184.901ZM184.965 246.264V237.784H193.061V246.264H184.965Z" fill="#171921"/>
<path d="M328.048 136.049L329.556 113.004L308.845 123.221L328.048 136.049ZM58.8532 249.177C27.8278 175.349 62.5254 90.3498 136.352 59.3244L134.803 55.6368C58.9391 87.518 23.2843 174.863 55.1656 250.726L58.8532 249.177ZM136.352 59.3244C204.645 30.625 282.5 58.1641 318.345 120.892L321.818 118.907C284.982 54.4455 204.982 26.1445 134.803 55.6368L136.352 59.3244ZM248.705 326.676C174.878 357.701 89.8785 323.004 58.8532 249.177L55.1656 250.726C87.0468 326.59 174.391 362.245 250.255 330.364L248.705 326.676Z" fill="#F7A325"/>
</svg>
