<svg width="75" height="75" viewBox="0 0 75 75" fill="none" xmlns="http://www.w3.org/2000/svg">
<circle cx="37.5" cy="37.5" r="37.5" fill="#F7A325"/>
<path d="M37.5 24.375C40.5314 24.375 43.3149 25.4129 45.5368 27.1389L52.3565 20.6327C48.3915 17.1374 43.2012 15 37.5 15C28.8607 15 21.3688 19.8748 17.5984 27.0185L25.1817 33.0052C27.0187 27.9738 31.8328 24.375 37.5 24.375Z" fill="#171921"/>
<path d="M59.8051 40.316C59.9223 39.3942 60 38.4538 60 37.5001C60 35.8916 59.8243 34.3254 59.5036 32.8126H37.5V42.1876H49.6616C48.6778 44.7446 46.926 46.9084 44.6963 48.4115L52.3077 54.4206C56.3426 50.879 59.1037 45.9195 59.8051 40.316Z" fill="#171921"/>
<path d="M24.375 37.5C24.375 35.9185 24.6691 34.4093 25.1817 33.0052L17.5984 27.0184C15.9456 30.15 15 33.7128 15 37.5C15 41.2448 15.9282 44.7681 17.5467 47.8743L25.1396 41.8798C24.6533 40.5083 24.375 39.0383 24.375 37.5Z" fill="#171921"/>
<path d="M37.5002 50.6249C31.7898 50.6249 26.9447 46.9715 25.1397 41.8798L17.5468 47.8742C21.2988 55.0752 28.8186 59.9999 37.5002 59.9999C43.1772 59.9999 48.3541 57.8909 52.3079 54.4205L44.6964 48.4114C42.6399 49.7979 40.1784 50.6249 37.5002 50.6249Z" fill="#171921"/>
<path opacity="0.1" d="M37.5 59.5312C30.8781 59.5312 24.9238 56.799 20.7141 52.4462C24.835 57.0708 30.8183 60 37.5 60C44.1198 60 50.0536 57.1286 54.1652 52.5764C49.968 56.8587 44.0589 59.5312 37.5 59.5312Z" fill="#171921"/>
<path opacity="0.1" d="M37.5 41.7188V42.1875H49.6616L49.8515 41.7188H37.5Z" fill="#171921"/>
<path d="M59.9897 37.7757C59.9912 37.6833 60.0002 37.5926 60.0002 37.5C60.0002 37.4738 59.996 37.4485 59.9959 37.4223C59.9947 37.5404 59.9887 37.6571 59.9897 37.7757Z" fill="#171921"/>
<path opacity="0.2" d="M37.5 32.8126V33.2813H59.5979C59.5684 33.1266 59.5362 32.9661 59.5036 32.8126H37.5Z" fill="#F7A325"/>
<path d="M59.5035 32.8125H37.5V42.1875H49.6616C47.7704 47.103 43.0822 50.625 37.5 50.625C30.2513 50.625 24.375 44.7487 24.375 37.5C24.375 30.2512 30.2513 24.375 37.5 24.375C40.1285 24.375 42.5511 25.1825 44.6035 26.5138C44.9176 26.7179 45.2417 26.9096 45.5368 27.1389L52.3565 20.6327L52.2027 20.5143C48.2568 17.0945 43.1316 15 37.5 15C25.0735 15 15 25.0735 15 37.5C15 49.9263 25.0735 60 37.5 60C48.9706 60 58.4165 51.4102 59.8051 40.3159C59.9223 39.3941 60 38.4537 60 37.5C60 35.8915 59.8243 34.3253 59.5035 32.8125Z" fill="#171921"/>
<path opacity="0.1" d="M44.6036 26.0451C42.5512 24.7138 40.1286 23.9063 37.5001 23.9063C30.2514 23.9063 24.3751 29.7825 24.3751 37.0313C24.3751 37.1103 24.3762 37.1721 24.3776 37.251C24.504 30.1116 30.3305 24.375 37.5001 24.375C40.1286 24.375 42.5512 25.1825 44.6036 26.5138C44.9177 26.718 45.2418 26.9097 45.537 27.1389L52.3566 20.6327L45.537 26.6701C45.2418 26.4409 44.9177 26.2492 44.6036 26.0451Z" fill="#171921"/>
<path opacity="0.2" d="M37.5 15.4687C43.0782 15.4687 48.1555 17.5282 52.0862 20.8905L52.3565 20.6327L52.1502 20.453C48.2043 17.0332 43.1316 15 37.5 15C25.0735 15 15 25.0735 15 37.5C15 37.5791 15.011 37.6554 15.0118 37.7344C15.1388 25.4172 25.1526 15.4687 37.5 15.4687Z" fill="#F7A325"/>
</svg>
