<svg width="29" height="26" viewBox="0 0 29 26" fill="none" xmlns="http://www.w3.org/2000/svg">
<path d="M1 1H9C10.4145 1 11.771 1.5619 12.7712 2.5621C13.7714 3.56229 14.3333 4.91885 14.3333 6.33333V25C14.3333 23.9391 13.9119 22.9217 13.1618 22.1716C12.4116 21.4214 11.3942 21 10.3333 21H1V1Z" stroke="white" stroke-width="2" stroke-linecap="round" stroke-linejoin="round"/>
<path d="M27.6668 1H19.6668C18.2523 1 16.8958 1.5619 15.8956 2.5621C14.8954 3.56229 14.3335 4.91885 14.3335 6.33333V25C14.3335 23.9391 14.7549 22.9217 15.5051 22.1716C16.2552 21.4214 17.2726 21 18.3335 21H27.6668V1Z" stroke="white" stroke-width="2" stroke-linecap="round" stroke-linejoin="round"/>
</svg>
