<svg width="32" height="32" viewBox="0 0 32 32" fill="none" xmlns="http://www.w3.org/2000/svg">
<path fill-rule="evenodd" clip-rule="evenodd" d="M29.827 16.7834C30.0167 16.8734 30.2208 16.9204 30.4284 16.9199C30.661 16.9176 30.8903 16.8557 31.1005 16.7385C31.3107 16.6213 31.4966 16.4517 31.6455 16.2413C31.9049 15.8624 32.0298 15.38 31.994 14.8952C31.9582 14.4103 31.7644 13.9605 31.4533 13.64L19.0105 1.31205C18.1785 0.465714 17.1155 0 16.0159 0C14.9163 0 13.8533 0.465714 13.0213 1.31205L0.578505 13.64C0.251474 13.96 0.0458177 14.4197 0.00677629 14.9182C-0.0322651 15.4166 0.098507 15.9129 0.370324 16.2979C0.642142 16.6828 1.03274 16.9249 1.45619 16.9709C1.71332 16.9988 1.96977 16.953 2.20478 16.841C2.3568 16.7687 2.49984 16.6686 2.62828 16.5429L3.20478 15.9774V17.1306V17.1322V17.3706V28.23C3.20478 29.2299 3.54222 30.1888 4.14286 30.8958C4.74349 31.6028 5.55813 32 6.40756 32H20.8201H25.6242C26.4737 32 27.2883 31.6028 27.8889 30.8958C28.4896 30.1888 28.827 29.2299 28.827 28.23V17.3138V17.1394V17.0774V15.9774L29.4035 16.4864C29.5318 16.6115 29.6748 16.7113 29.827 16.7834ZM1.92895 15.8281L2.50452 15.2635L4.20478 13.5957V15.9774V28.23C4.20478 29.0126 4.47032 29.7367 4.90497 30.2483C5.33541 30.755 5.88086 31 6.40756 31H20.8201H25.6242C26.1509 31 26.6964 30.755 27.1268 30.2483C27.5615 29.7367 27.827 29.0126 27.827 28.23V15.9774V13.7607L29.4888 15.2278L30.0653 15.7367L30.084 15.7532L30.1018 15.7705C30.2165 15.8825 30.3314 15.9191 30.4223 15.9199C30.4808 15.9187 30.5455 15.9031 30.6135 15.8651C30.6825 15.8266 30.7571 15.7637 30.8247 15.67C30.9455 15.4901 31.0166 15.2385 30.9967 14.9688C30.9768 14.6994 30.8714 14.4793 30.741 14.342L18.3067 2.02243L18.2973 2.01316L18.2974 2.0131C17.6369 1.34121 16.8247 1 16.0159 1C15.2071 1 14.3949 1.34121 13.7344 2.0131L13.7252 2.02249L13.7251 2.02243L1.28233 14.3504L1.27785 14.3548L1.27784 14.3548C1.14035 14.4893 1.02576 14.7149 1.00372 14.9963C0.981702 15.2774 1.05858 15.5389 1.1872 15.7211C1.31323 15.8995 1.45819 15.9652 1.56408 15.9767C1.66583 15.9877 1.79737 15.9567 1.92865 15.8284C1.92875 15.8283 1.92885 15.8282 1.92895 15.8281Z" fill="#F7A325"/>
</svg>
