<svg width="54" height="54" viewBox="0 0 54 54" fill="none" xmlns="http://www.w3.org/2000/svg">
<g clip-path="url(#clip0_33_24)">
<rect width="54" height="54" fill="#D9D9D9"/>
<path d="M16.0312 12.6562C13.2353 12.6562 10.9687 14.9228 10.9687 17.7188C10.9687 20.5147 13.2353 22.7812 16.0312 22.7812C18.8272 22.7812 21.0937 20.5147 21.0937 17.7188C21.0937 14.9228 18.8262 12.6562 16.0312 12.6562ZM47.1551 3.375H6.65508C3.02168 3.375 -0.000961304 6.39668 -0.000961304 10.125V43.875C-0.000961304 47.6033 3.02072 50.625 6.65412 50.625H47.1541C50.8824 50.625 53.9041 47.6033 53.9041 43.875V10.125C53.9051 6.39668 50.973 3.375 47.1551 3.375ZM48.8426 43.1684L34.4145 23.5617C34.1508 23.0766 33.5496 22.7812 32.9062 22.7812C32.2615 22.7812 31.6596 23.0732 31.3021 23.5595L20.0591 38.7576L16.1473 33.8954C15.7843 33.4441 15.205 33.1773 14.5895 33.1773C13.9733 33.1773 13.3945 33.444 13.0307 33.8954L5.06566 43.7895C5.06566 43.7864 5.06566 43.7926 5.06566 43.7895L5.06144 10.125C5.06144 9.19455 5.8185 8.4375 6.74894 8.4375H47.2489C48.1794 8.4375 48.9364 9.19455 48.9364 10.125V43.1684H48.8426Z" fill="#171921"/>
</g>
<defs>
<clipPath id="clip0_33_24">
<rect width="54" height="54" fill="white"/>
</clipPath>
</defs>
</svg>
