<svg width="26" height="32" viewBox="0 0 26 32" fill="none" xmlns="http://www.w3.org/2000/svg">
<path fill-rule="evenodd" clip-rule="evenodd" d="M19.5555 32L5.33331 32C2.38771 32 -2.84224e-05 29.851 -2.81906e-05 27.2L-2.62323e-05 4.8C-2.60006e-05 2.14896 2.38771 -2.06425e-06 5.33331 -1.80674e-06L19.5555 -5.63394e-07C20.5374 -4.77559e-07 21.3333 0.71632 21.3333 1.6C21.3333 2.48368 20.5374 3.2 19.5555 3.2L5.33331 3.2C4.35144 3.2 3.55553 3.91632 3.55553 4.8L3.55553 27.2C3.55553 28.0837 4.35144 28.8 5.33331 28.8L19.5555 28.8C20.5374 28.8 21.3333 29.5163 21.3333 30.4C21.3333 31.2836 20.5374 32 19.5555 32ZM19.0348 23.5314C18.3406 24.1562 17.2149 24.1562 16.5207 23.5314L9.40957 17.1314C9.07624 16.8314 8.88886 16.4243 8.88886 16C8.88886 15.5757 9.07624 15.1686 9.40957 14.8686L16.5207 8.46864C17.2149 7.84384 18.3406 7.84384 19.0348 8.46864C19.7291 9.09344 19.7291 10.1066 19.0348 10.7314L14.9586 14.4L24.2222 14.4C25.204 14.4 26 15.1163 26 16C26 16.8837 25.204 17.6 24.2222 17.6L14.9586 17.6L19.0348 21.2686C19.7291 21.8935 19.7291 22.9065 19.0348 23.5314Z" fill="white"/>
</svg>
