<svg width="35" height="35" viewBox="0 0 35 35" fill="none" xmlns="http://www.w3.org/2000/svg">
<path d="M11.0858 1.08579C11.4609 0.710714 11.9696 0.5 12.5 0.5C13.0304 0.5 13.5391 0.710714 13.9142 1.08579C14.2893 1.46086 14.5 1.96957 14.5 2.5V32.5C14.5 33.0304 14.2893 33.5391 13.9142 33.9142C13.5391 34.2893 13.0304 34.5 12.5 34.5C11.9696 34.5 11.4609 34.2893 11.0858 33.9142C10.7107 33.5391 10.5 33.0304 10.5 32.5V2.5C10.5 1.96957 10.7107 1.46086 11.0858 1.08579Z" fill="white" stroke="#171921"/>
<path d="M1.08579 16.0858C1.46086 15.7107 1.96957 15.5 2.5 15.5C3.03043 15.5 3.53914 15.7107 3.91421 16.0858C4.28929 16.4609 4.5 16.9696 4.5 17.5V32.5C4.5 33.0304 4.28929 33.5391 3.91421 33.9142C3.53914 34.2893 3.03043 34.5 2.5 34.5C1.96957 34.5 1.46086 34.2893 1.08579 33.9142C0.710713 33.5391 0.5 33.0304 0.5 32.5V17.5C0.5 16.9696 0.710714 16.4609 1.08579 16.0858Z" fill="white" stroke="#171921"/>
<path d="M21.0858 8.58579C21.4609 8.21071 21.9696 8 22.5 8C23.0304 8 23.5391 8.21071 23.9142 8.58579C24.2893 8.96086 24.5 9.46957 24.5 10V32.5C24.5 33.0304 24.2893 33.5391 23.9142 33.9142C23.5391 34.2893 23.0304 34.5 22.5 34.5C21.9696 34.5 21.4609 34.2893 21.0858 33.9142C20.7107 33.5391 20.5 33.0304 20.5 32.5V10C20.5 9.46957 20.7107 8.96086 21.0858 8.58579Z" fill="white" stroke="#171921"/>
<path d="M31.0858 24.8358C31.4609 24.4607 31.9696 24.25 32.5 24.25C33.0304 24.25 33.5391 24.4607 33.9142 24.8358C34.2893 25.2109 34.5 25.7196 34.5 26.25V32.5C34.5 33.0304 34.2893 33.5391 33.9142 33.9142C33.5391 34.2893 33.0304 34.5 32.5 34.5C31.9696 34.5 31.4609 34.2893 31.0858 33.9142C30.7107 33.5391 30.5 33.0304 30.5 32.5V26.25C30.5 25.7196 30.7107 25.2109 31.0858 24.8358Z" fill="white" stroke="#171921"/>
</svg>
