<svg width="290" height="290" viewBox="0 0 290 290" fill="none" xmlns="http://www.w3.org/2000/svg">
<circle cx="145" cy="146" r="129" fill="#D9D9D9"/>
<path d="M188.312 218.188H101.687C97.8582 218.188 94.186 216.666 91.4784 213.959C88.7708 211.251 87.2498 207.579 87.2498 203.75V150.813C87.2498 146.983 88.7708 143.311 91.4784 140.604C94.186 137.896 97.8582 136.375 101.687 136.375H188.312C192.141 136.375 195.814 137.896 198.521 140.604C201.229 143.311 202.75 146.983 202.75 150.813V203.75C202.75 207.579 201.229 211.251 198.521 213.959C195.814 216.666 192.141 218.188 188.312 218.188ZM101.687 146C100.411 146 99.1868 146.507 98.2843 147.41C97.3818 148.312 96.8748 149.536 96.8748 150.813V203.75C96.8748 205.026 97.3818 206.25 98.2843 207.153C99.1868 208.056 100.411 208.563 101.687 208.563H188.312C189.589 208.563 190.813 208.056 191.715 207.153C192.618 206.25 193.125 205.026 193.125 203.75V150.813C193.125 149.536 192.618 148.312 191.715 147.41C190.813 146.507 189.589 146 188.312 146H101.687Z" fill="#171921"/>
<path d="M100.687 136.375V137.375H101.687H111.312H112.312V136.375V112.313C112.312 104.92 115.249 97.8295 120.477 92.602C125.704 87.3744 132.794 84.4376 140.187 84.4376H149.812C157.117 84.4376 165.188 87.757 169.22 92.3003C171.681 95.0727 175.306 95.2207 177.603 93.5161C178.76 92.6579 179.558 91.3383 179.661 89.7208C179.763 88.1135 179.173 86.3228 177.778 84.4844C175.05 80.8895 170.634 77.9802 165.664 75.9714C160.682 73.9579 155.054 72.8126 149.812 72.8126H140.187C129.711 72.8126 119.664 76.9742 112.257 84.3818C104.849 91.7895 100.687 101.837 100.687 112.313V136.375Z" fill="#171921" stroke="#171921" stroke-width="2"/>
<path d="M148.028 156.799C143.54 156.799 139.152 158.13 135.42 160.623C131.688 163.117 128.78 166.661 127.062 170.808C125.345 174.954 124.895 179.517 125.771 183.919C126.647 188.321 128.808 192.365 131.982 195.538C135.155 198.712 139.199 200.873 143.601 201.749C148.003 202.625 152.566 202.175 156.712 200.458C160.859 198.74 164.403 195.831 166.897 192.1C169.39 188.368 170.721 183.98 170.721 179.492C170.721 176.512 170.134 173.561 168.994 170.808C167.853 168.054 166.182 165.553 164.074 163.446C161.967 161.338 159.465 159.667 156.712 158.526C153.959 157.386 151.008 156.799 148.028 156.799ZM158.716 174.295L147.37 185.642C147.159 185.855 146.908 186.023 146.631 186.139C146.355 186.254 146.058 186.313 145.759 186.313C145.459 186.313 145.162 186.254 144.886 186.139C144.609 186.023 144.358 185.855 144.147 185.642L139.609 181.103C139.181 180.676 138.941 180.096 138.941 179.492C138.941 178.888 139.181 178.308 139.609 177.881C140.036 177.453 140.616 177.213 141.22 177.213C141.824 177.213 142.404 177.453 142.831 177.881L145.759 180.831L155.494 171.073C155.921 170.646 156.501 170.405 157.105 170.405C157.709 170.405 158.289 170.646 158.716 171.073C159.144 171.5 159.384 172.08 159.384 172.684C159.384 173.288 159.144 173.868 158.716 174.295Z" fill="#171921"/>
<circle cx="145" cy="145" r="143" stroke="#F7A325" stroke-width="4"/>
</svg>
