<svg width="32" height="32" viewBox="0 0 32 32" fill="none" xmlns="http://www.w3.org/2000/svg">
<path d="M22.2624 7.7376C23.2624 7.7376 24.0812 6.91885 24.0812 5.91885V1.8251C24.0812 0.825098 23.2624 0.00634766 22.2624 0.00634766C21.2624 0.00634766 20.4437 0.825098 20.4437 1.8251V5.9251C20.4437 6.91885 21.2624 7.7376 22.2624 7.7376Z" fill="white"/>
<path d="M5.0812 3.8689H7.1437V6.35015C7.1437 7.8814 8.37495 9.1314 9.8812 9.1314H10.6062C12.1125 9.1314 13.3437 7.8814 13.3437 6.35015V3.8689H18.9937V6.35015C18.9937 7.8814 20.225 9.1314 21.7312 9.1314H22.4562C23.9625 9.1314 25.1937 7.8814 25.1937 6.35015V3.8689H26.775C28.4687 3.8689 29.8562 5.27515 29.8562 6.9939V28.8689C29.8562 30.5876 28.4687 31.9939 26.775 31.9939H5.07495C3.3812 31.9939 1.9937 30.5876 1.9937 28.8689V6.9939C1.99995 5.27515 3.38745 3.8689 5.0812 3.8689ZM5.6062 25.9189C5.6062 26.9876 6.4687 27.8626 7.5187 27.8626H24.3312C25.3812 27.8626 26.2437 26.9876 26.2437 25.9189V14.8939C26.2437 13.8251 26.5 10.8751 24.3312 10.8751H7.5187C5 10.8751 5.6062 13.8251 5.6062 14.8939V25.9189Z" fill="white"/>
<path d="M10.2312 7.7376C11.2312 7.7376 12.0499 6.91885 12.0499 5.91885V1.8251C12.0499 0.825098 11.2312 0.00634766 10.2312 0.00634766C9.23118 0.00634766 8.41243 0.825098 8.41243 1.8251V5.9251C8.41243 6.91885 9.23118 7.7376 10.2312 7.7376Z" fill="white"/>
<path d="M22.2212 17.6052C21.9176 16.4695 21.3461 15.3951 20.5371 14.5408C19.8434 13.8081 18.9653 13.3054 18.0148 12.9852C17.4537 12.7961 16.8738 12.6724 16.2834 12.6267C15.6295 12.576 14.9707 12.6375 14.3197 12.6974C12.9736 12.8264 11.8208 13.5019 10.833 14.3951C9.90097 15.2378 9.40412 16.4152 9.13632 17.6238C8.65997 19.7738 9.18852 22.1298 10.5756 23.8454C12.1669 25.8135 14.8755 26.2912 17.2597 25.8268C18.5253 25.5803 19.7711 24.9992 20.6443 24.0339C21.4633 23.1287 21.9288 21.952 22.2019 20.7772C22.4415 19.7468 22.4965 18.635 22.2212 17.6052ZM18.5587 13.7332C19.6589 14.2396 20.509 15.1033 21.0935 16.1472C19.7162 16.2549 18.8028 17.3157 18.315 18.5429C17.8846 18.3475 17.4401 18.1858 16.9892 18.0593C17.1356 16.3903 16.9588 14.6856 16.3289 13.1305C16.4476 13.1398 16.5663 13.1521 16.6846 13.1689C17.3244 13.2599 17.9723 13.4633 18.5587 13.7332ZM13.688 15.2328C13.4963 14.6469 13.1553 14.0306 12.6127 13.7221C13.1434 13.4431 13.7191 13.255 14.3196 13.1974C14.8051 13.1527 15.2943 13.1098 15.7827 13.1099C15.7846 13.115 15.7863 13.12 15.7885 13.1251C16.4525 14.6253 16.6328 16.3017 16.4987 17.9357C16.3577 17.9045 16.2162 17.8767 16.0746 17.8525C15.3654 17.7317 14.6646 17.7141 13.9646 17.7578C14.049 16.9194 13.9488 16.0294 13.688 15.2328ZM12.0737 14.0463C12.7201 14.208 13.0503 14.8689 13.2387 15.468C13.4728 16.2124 13.5356 17.0239 13.4598 17.7994C13.0447 17.8415 12.6292 17.9016 12.2117 17.9718C11.5966 18.0751 10.9659 18.1478 10.3569 18.2799C10.0875 18.3383 9.78872 18.4364 9.50002 18.4658C9.60337 17.4748 9.91562 16.4955 10.4208 15.6525C10.8166 14.9918 11.4413 14.4737 12.0737 14.0463ZM9.46517 18.9696C9.74357 18.9485 10.0337 18.8622 10.2932 18.8053C10.8103 18.6921 11.3376 18.6272 11.8593 18.5372C12.3634 18.4503 12.8626 18.3701 13.3622 18.314C13.1707 18.9803 12.7507 19.5857 12.322 20.1151C11.7292 20.8474 10.931 21.6246 9.98372 21.8583C9.71162 21.1827 9.54367 20.463 9.48427 19.7486C9.46282 19.4911 9.45677 19.2306 9.46517 18.9696ZM10.19 22.3221C11.1905 22.0542 12.0393 21.2399 12.6755 20.4686C13.2134 19.8165 13.6861 19.0874 13.8813 18.2655C14.4652 18.2226 15.0517 18.2213 15.6489 18.2919C15.9152 18.3233 16.1823 18.3696 16.4483 18.4293C16.4138 18.716 16.3702 19.0007 16.318 19.2821C16.1243 20.3265 15.8028 21.3511 15.364 22.3184C14.8894 23.3646 14.2447 24.3085 13.5731 25.2354C13.3423 25.1695 13.117 25.0912 12.9 24.9992C11.6738 24.4793 10.7647 23.4908 10.19 22.3221ZM16.806 25.4019C15.9375 25.5428 14.9898 25.5391 14.0959 25.3615C14.7497 24.4519 15.3633 23.5241 15.8281 22.4995C16.2968 21.4662 16.6286 20.3741 16.8289 19.2579C16.8707 19.025 16.9062 18.7904 16.9359 18.5548C17.349 18.6743 17.7566 18.8266 18.1517 19.0089C18.1211 19.1096 18.0931 19.2107 18.0679 19.3119C17.6197 21.1079 17.8091 23.2017 18.743 24.8188C18.1316 25.1088 17.4653 25.2949 16.806 25.4019ZM20.2908 23.6804C19.9723 24.0431 19.5964 24.3412 19.1854 24.5841C18.3291 23.1181 18.1595 21.2457 18.5124 19.6067C18.539 19.4832 18.5703 19.3587 18.6056 19.2344C19.6976 19.8175 20.6659 20.6347 21.3442 21.6261C21.3655 21.6572 21.3904 21.681 21.4173 21.6986C21.1595 22.4203 20.7981 23.1027 20.2908 23.6804ZM21.7806 20.3615C21.7298 20.6175 21.6691 20.8733 21.5982 21.1267C20.8601 20.1403 19.8697 19.338 18.7631 18.7616C19.1978 17.6296 20.0268 16.6304 21.3429 16.6373C21.8778 17.8108 22.0335 19.0876 21.7806 20.3615Z" fill="white"/>
<path d="M16.3501 13.3812C16.9624 13.3769 17.655 13.2602 18.2343 13.5103C18.2709 13.5261 18.3028 13.4723 18.2659 13.4564C17.6732 13.2005 16.976 13.3144 16.3501 13.3188C16.3098 13.319 16.3097 13.3815 16.3501 13.3812Z" fill="white"/>
<path d="M16.7834 13.548C17.4931 13.5453 18.2052 13.4884 18.9084 13.6136C18.9478 13.6206 18.9647 13.5604 18.925 13.5533C18.2161 13.4272 17.499 13.4827 16.7834 13.4855C16.7431 13.4857 16.7431 13.5482 16.7834 13.548Z" fill="white"/>
<path d="M16.925 13.8135C17.7276 13.6834 18.5423 13.7777 19.35 13.7812C19.3904 13.7814 19.3903 13.7189 19.35 13.7187C18.5362 13.7151 17.717 13.6221 16.9084 13.7532C16.8687 13.7596 16.8856 13.8199 16.925 13.8135Z" fill="white"/>
<path d="M17.3501 13.9813C18.1365 13.9763 18.9257 13.8548 19.7084 13.9802C19.7478 13.9865 19.7647 13.9263 19.725 13.92C18.9362 13.7935 18.1427 13.9138 17.3501 13.9189C17.3098 13.9191 17.3097 13.9816 17.3501 13.9813Z" fill="white"/>
<path d="M17.6001 14.2314C18.2921 14.2292 18.983 14.1835 19.6751 14.1814C19.7154 14.1813 19.7154 14.1188 19.6751 14.1189C18.983 14.121 18.2921 14.1667 17.6001 14.1689C17.5598 14.169 17.5597 14.2315 17.6001 14.2314Z" fill="white"/>
<path d="M17.8251 14.4812C18.5603 14.5232 19.29 14.3883 20.0251 14.4062C20.0654 14.4072 20.0653 14.3447 20.0251 14.3437C19.29 14.3258 18.5603 14.4607 17.8251 14.4187C17.7848 14.4164 17.785 14.4789 17.8251 14.4812Z" fill="white"/>
<path d="M18.175 14.7813C18.8918 14.7802 19.6083 14.7574 20.325 14.7563C20.3653 14.7563 20.3653 14.6938 20.325 14.6938C19.6083 14.6949 18.8918 14.7177 18.175 14.7188C18.1347 14.7189 18.1347 14.7814 18.175 14.7813Z" fill="white"/>
<path d="M18.4834 15.1053C19.2508 14.8372 20.188 15.0186 20.9751 15.1064C21.0151 15.1108 21.0147 15.0483 20.9751 15.0439C20.1811 14.9553 19.2419 14.7742 18.4668 15.045C18.429 15.0582 18.4452 15.1186 18.4834 15.1053Z" fill="white"/>
<path d="M18.698 15.2909C18.7422 15.3509 18.8342 15.353 18.9018 15.3608C19.115 15.3855 19.3346 15.3735 19.5485 15.3667C19.9656 15.3535 20.3827 15.3096 20.8 15.3064C20.8403 15.3061 20.8403 15.2436 20.8 15.2439C20.4572 15.2466 20.1139 15.2793 19.7716 15.2953C19.5768 15.3044 19.3817 15.3107 19.1866 15.3104C19.1002 15.3103 18.8121 15.3409 18.752 15.2593C18.7283 15.2273 18.674 15.2584 18.698 15.2909Z" fill="white"/>
<path d="M18.95 15.6313C19.7169 15.6553 20.4832 15.584 21.25 15.5813C21.2903 15.5811 21.2904 15.5186 21.25 15.5188C20.4832 15.5215 19.7169 15.5928 18.95 15.5688C18.9097 15.5675 18.9098 15.63 18.95 15.6313Z" fill="white"/>
<path d="M19.0833 15.9053C19.806 15.7251 20.5656 15.8518 21.3 15.8564C21.3404 15.8566 21.3403 15.7941 21.3 15.7939C20.5594 15.7892 19.7956 15.6633 19.0667 15.845C19.0276 15.8547 19.0442 15.915 19.0833 15.9053Z" fill="white"/>
<path d="M19.25 16.0938C19.2352 16.0938 19.2204 16.0938 19.2056 16.0938C19.1652 16.0938 19.1652 16.1563 19.2056 16.1563C19.9531 16.1563 20.7027 16.0729 21.45 16.1063C21.4904 16.1081 21.4902 16.0456 21.45 16.0438C20.7028 16.0104 19.9531 16.0938 19.2056 16.0938C19.1652 16.0938 19.1652 16.1563 19.2056 16.1563C19.2204 16.1563 19.2352 16.1563 19.25 16.1563C19.2903 16.1563 19.2903 16.0938 19.25 16.0938Z" fill="white"/>
<path d="M19.3 16.4563C20.0085 16.4542 20.7164 16.4082 21.425 16.4313C21.4654 16.4326 21.4652 16.3701 21.425 16.3688C20.7164 16.3457 20.0085 16.3917 19.3 16.3938C19.2597 16.3939 19.2597 16.4564 19.3 16.4563Z" fill="white"/>
<path d="M19.5083 16.7551C20.221 16.5595 21.0051 16.8213 21.725 16.8562C21.7653 16.8581 21.7652 16.7956 21.725 16.7937C20.9979 16.7584 20.2118 16.4971 19.4917 16.6948C19.4529 16.7054 19.4694 16.7657 19.5083 16.7551Z" fill="white"/>
<path d="M19.6251 17.1313C20.3504 17.1335 21.0747 17.1795 21.8001 17.1813C21.8404 17.1814 21.8404 17.1189 21.8001 17.1188C21.0747 17.117 20.3504 17.071 19.6251 17.0688C19.5847 17.0687 19.5848 17.1312 19.6251 17.1313Z" fill="white"/>
<path d="M19.5417 17.4803C20.3797 17.5978 21.2312 17.4887 22.0667 17.6303C22.1061 17.637 22.123 17.5767 22.0833 17.57C21.2475 17.4284 20.3963 17.5376 19.5583 17.42C19.5189 17.4145 19.5019 17.4747 19.5417 17.4803Z" fill="white"/>
<path d="M19.7501 17.8813C20.5418 17.8823 21.3333 17.9053 22.1251 17.9063C22.1654 17.9064 22.1654 17.8439 22.1251 17.8438C21.3333 17.8428 20.5418 17.8198 19.7501 17.8188C19.7098 17.8188 19.7098 17.8813 19.7501 17.8813Z" fill="white"/>
<path d="M19.8222 18.2472C19.9044 18.1481 20.1225 18.1631 20.2364 18.1586C20.4647 18.1495 20.6944 18.1622 20.9224 18.1752C21.3143 18.1976 21.7074 18.2523 22.1001 18.2564C22.1404 18.2568 22.1404 18.1943 22.1001 18.1939C21.6699 18.1895 21.2388 18.1293 20.8093 18.1065C20.5759 18.094 20.341 18.0865 20.1077 18.1031C20.0043 18.1105 19.8502 18.116 19.778 18.203C19.7525 18.2338 19.7964 18.2783 19.8222 18.2472Z" fill="white"/>
<path d="M19.825 18.5564C20.6 18.5564 21.375 18.5564 22.15 18.5564C22.1903 18.5564 22.1903 18.4939 22.15 18.4939C21.375 18.4939 20.6 18.4939 19.825 18.4939C19.7847 18.4939 19.7847 18.5564 19.825 18.5564Z" fill="white"/>
<path d="M19.825 18.9313C20.5566 18.9859 21.2927 18.909 22.025 18.9063C22.0653 18.9061 22.0653 18.8436 22.025 18.8438C21.2927 18.8465 20.5566 18.9234 19.825 18.8688C19.7847 18.8658 19.785 18.9283 19.825 18.9313Z" fill="white"/>
<path d="M19.7501 19.3063C20.5336 19.3286 21.3166 19.2832 22.1001 19.2813C22.1404 19.2812 22.1404 19.2187 22.1001 19.2188C21.3166 19.2207 20.5336 19.2661 19.7501 19.2438C19.7097 19.2426 19.7098 19.3051 19.7501 19.3063Z" fill="white"/>
<path d="M19.825 19.6313C20.5087 19.6335 21.1913 19.6791 21.875 19.6813C21.9154 19.6815 21.9153 19.619 21.875 19.6188C21.1913 19.6166 20.5087 19.571 19.825 19.5688C19.7847 19.5687 19.7847 19.6312 19.825 19.6313Z" fill="white"/>
<path d="M19.7251 20.0314C20.4585 20.0345 21.1948 20.1029 21.9251 20.0064C21.9644 20.0012 21.9649 19.9387 21.9251 19.9439C21.1948 20.0404 20.4585 19.972 19.7251 19.9689C19.6847 19.9688 19.6848 20.0313 19.7251 20.0314Z" fill="white"/>
<path d="M19.675 20.4814C20.4568 20.4108 21.2416 20.4537 22.025 20.4314C22.0653 20.4303 22.0654 20.3678 22.025 20.3689C21.2416 20.3912 20.4568 20.3483 19.675 20.4189C19.6352 20.4225 19.6349 20.485 19.675 20.4814Z" fill="white"/>
<path d="M19.6333 20.8802C20.4224 20.6933 21.2514 20.9244 22.05 20.9063C22.0903 20.9053 22.0904 20.8428 22.05 20.8438C21.2449 20.862 20.4125 20.6314 19.6167 20.8199C19.5775 20.8292 19.5941 20.8894 19.6333 20.8802Z" fill="white"/>
<path d="M19.4834 21.3551C20.215 21.2481 20.9886 21.247 21.7168 21.3801C21.7562 21.3874 21.773 21.3271 21.7334 21.3199C20.9928 21.1845 20.2107 21.1861 19.4668 21.2949C19.427 21.3007 19.444 21.3609 19.4834 21.3551Z" fill="white"/>
<path d="M19.2501 21.8062C20.0423 21.8033 20.8327 21.7339 21.6251 21.7312C21.6654 21.7311 21.6654 21.6686 21.6251 21.6687C20.8327 21.6714 20.0423 21.7408 19.2501 21.7437C19.2098 21.7439 19.2097 21.8064 19.2501 21.8062Z" fill="white"/>
<path d="M19.0251 22.1564C19.8007 22.1574 20.5766 22.1771 21.3501 22.1064C21.3899 22.1027 21.3902 22.0402 21.3501 22.0439C20.5766 22.1146 19.8007 22.0949 19.0251 22.0939C18.9848 22.0938 18.9848 22.1563 19.0251 22.1564Z" fill="white"/>
<path d="M18.8333 22.5302C19.5657 22.3211 20.4522 22.3882 21.1917 22.5302C21.2311 22.5377 21.2479 22.4775 21.2083 22.4699C20.4544 22.3251 19.5634 22.2568 18.8167 22.4699C18.7781 22.4809 18.7945 22.5412 18.8333 22.5302Z" fill="white"/>
<path d="M18.4751 22.7814C19.3466 22.7859 20.2166 22.8939 21.0834 22.7553C21.1231 22.7489 21.1062 22.6887 21.0668 22.695C20.2059 22.8328 19.3406 22.7234 18.4751 22.7189C18.4347 22.7187 18.4348 22.7812 18.4751 22.7814Z" fill="white"/>
<path d="M18.325 23.0813C19.15 23.0858 19.9764 23.2041 20.8 23.1063C20.8395 23.1016 20.84 23.039 20.8 23.0438C19.9764 23.1416 19.15 23.0233 18.325 23.0188C18.2847 23.0185 18.2847 23.081 18.325 23.0813Z" fill="white"/>
<path d="M18.2 23.4314C18.9917 23.4314 19.7834 23.4314 20.575 23.4314C20.6153 23.4314 20.6153 23.3689 20.575 23.3689C19.7834 23.3689 18.9917 23.3689 18.2 23.3689C18.1597 23.3689 18.1597 23.4314 18.2 23.4314Z" fill="white"/>
<path d="M17.7501 23.8063C18.6263 23.7795 19.5001 23.7072 20.3751 23.6563C20.4151 23.654 20.4154 23.5915 20.3751 23.5938C19.5001 23.6447 18.6263 23.717 17.7501 23.7438C17.7099 23.745 17.7097 23.8075 17.7501 23.8063Z" fill="white"/>
<path d="M17.3501 24.1062C18.2182 24.1108 19.0817 24.2272 19.9501 24.2312C19.9904 24.2314 19.9904 24.1689 19.9501 24.1687C19.0817 24.1647 18.2182 24.0483 17.3501 24.0437C17.3097 24.0435 17.3098 24.106 17.3501 24.1062Z" fill="white"/>
<path d="M16.9751 24.4314C17.7978 24.4398 18.6023 24.648 19.4251 24.6564C19.4654 24.6568 19.4654 24.5943 19.4251 24.5939C18.6023 24.5855 17.7979 24.3773 16.9751 24.3689C16.9347 24.3685 16.9348 24.431 16.9751 24.4314Z" fill="white"/>
<path d="M16.3501 24.6562C16.5139 24.6464 16.679 24.72 16.8313 24.7724C17.0038 24.8317 17.1801 24.8639 17.3594 24.8958C17.7442 24.9643 18.1342 25.0028 18.5251 25.0062C18.5654 25.0065 18.5654 24.944 18.5251 24.9437C18.08 24.9398 17.6401 24.886 17.203 24.804C16.9251 24.7518 16.6347 24.5767 16.3501 24.5937C16.31 24.5961 16.3098 24.6586 16.3501 24.6562Z" fill="white"/>
<path d="M15.7417 24.9051C16.3353 25.0363 16.9503 25.0975 17.5167 25.3301C17.554 25.3454 17.57 25.285 17.5333 25.2699C16.9669 25.0373 16.3519 24.9761 15.7583 24.8449C15.719 24.8362 15.7023 24.8964 15.7417 24.9051Z" fill="white"/>
<path d="M15.3751 25.0813C15.9321 25.0941 16.4586 25.3174 16.9918 25.4552C17.0308 25.4653 17.0474 25.405 17.0084 25.3949C16.4694 25.2557 15.9382 25.0317 15.3751 25.0188C15.3347 25.0178 15.3348 25.0803 15.3751 25.0813Z" fill="white"/>
<path d="M14.8084 25.2303C15.0519 25.1436 15.3318 25.2434 15.5675 25.3151C15.8154 25.3905 16.0594 25.4913 16.3168 25.5303C16.3562 25.5362 16.3731 25.476 16.3334 25.47C15.8563 25.3979 15.2789 24.9966 14.7918 25.17C14.7541 25.1834 14.7703 25.2438 14.8084 25.2303Z" fill="white"/>
<path d="M14.5417 25.2301C14.9103 25.3016 15.245 25.4934 15.5917 25.6301C15.6293 25.6449 15.6454 25.5845 15.6083 25.5699C15.2625 25.4334 14.9263 25.2412 14.5583 25.1699C14.519 25.1622 14.5022 25.2224 14.5417 25.2301Z" fill="white"/>
</svg>
