<svg width="32" height="32" viewBox="0 0 32 32" fill="none" xmlns="http://www.w3.org/2000/svg">
<path d="M10.3091 18.1313L11.1627 17.2778H9.95557H1.77779C1.35808 17.2778 1.04718 17.14 0.842454 16.9353C0.637733 16.7306 0.500011 16.4197 0.500011 16C0.500011 15.5803 0.637733 15.2694 0.842454 15.0646C1.04718 14.8599 1.35808 14.7222 1.77779 14.7222H9.95557H11.1627L10.3091 13.8686L7.99801 11.5575C7.48216 11.0417 7.48216 10.2916 7.99801 9.77575C8.25367 9.52009 8.65703 9.38886 8.8889 9.38886C9.12077 9.38886 9.52413 9.52009 9.77979 9.77575L15.1131 15.1091C15.1389 15.1349 15.1529 15.1571 15.1972 15.2458C15.1988 15.2488 15.2003 15.2519 15.2019 15.2551C15.2364 15.3242 15.2883 15.4283 15.3765 15.5391C15.4971 15.9583 15.466 16.3055 15.375 16.4875L15.3222 16.5931V16.6623C15.3193 16.6666 15.3156 16.6718 15.3111 16.6778C15.2699 16.7327 15.2085 16.7954 15.1131 16.8909L9.77979 22.2242C9.26394 22.74 8.51386 22.74 7.99801 22.2242C7.48216 21.7083 7.48216 20.9583 7.99801 20.4424L10.3091 18.1313Z" fill="white" stroke="#171921"/>
<path d="M9.53786 4.71661L9.52885 4.72152L9.52004 4.72681C8.90947 5.09315 8.14687 4.88099 7.72854 4.37327C7.47208 3.66488 7.65256 2.92756 8.25253 2.56463C10.6651 1.18711 13.2447 0.5 15.9995 0.5C24.6123 0.5 31.4995 7.38725 31.4995 16C31.4995 24.6127 24.6123 31.5 15.9995 31.5C13.2483 31.5 10.6638 30.8145 8.24127 29.6063C7.56298 29.1898 7.35068 28.4236 7.71715 27.8128C8.13147 27.1223 8.90463 26.9039 9.52004 27.2732L9.52885 27.2785L9.53786 27.2834C11.5667 28.39 13.7823 28.9444 15.9995 28.9444C23.209 28.9444 28.944 23.2095 28.944 16C28.944 8.79052 23.209 3.05556 15.9995 3.05556C13.7823 3.05556 11.5667 3.60998 9.53786 4.71661Z" fill="white" stroke="#171921"/>
</svg>
    