<svg width="32" height="32" viewBox="0 0 32 32" fill="none" xmlns="http://www.w3.org/2000/svg">
<g clip-path="url(#clip0_1_201)">
<path d="M31.78 15.055L28.865 12.14L17.25 0.512504C17.0875 0.349983 16.8945 0.221063 16.6822 0.133106C16.4699 0.0451489 16.2423 -0.00012207 16.0125 -0.00012207C15.7826 -0.00012207 15.5551 0.0451489 15.3427 0.133106C15.1304 0.221063 14.9375 0.349983 14.775 0.512504L3.14247 12.1325L0.219969 15.055C0.0874886 15.1972 0.0153654 15.3852 0.0187936 15.5795C0.0222218 15.7738 0.100934 15.9592 0.238347 16.0966C0.37576 16.234 0.561145 16.3127 0.755446 16.3162C0.949747 16.3196 1.13779 16.2475 1.27997 16.115L2.92247 14.4725V30.25C2.92247 30.7141 3.10684 31.1592 3.43503 31.4874C3.76322 31.8156 4.20834 32 4.67247 32H11.5C11.9641 32 12.4092 31.8156 12.7374 31.4874C13.0656 31.1592 13.25 30.7141 13.25 30.25V20.25C13.25 20.1837 13.2763 20.1201 13.3232 20.0732C13.3701 20.0263 13.4337 20 13.5 20H18.5C18.5663 20 18.6299 20.0263 18.6767 20.0732C18.7236 20.1201 18.75 20.1837 18.75 20.25V30.25C18.75 30.7141 18.9343 31.1592 19.2625 31.4874C19.5907 31.8156 20.0358 32 20.5 32H27.335C27.5648 32 27.7923 31.9547 28.0047 31.8668C28.217 31.7788 28.4099 31.6499 28.5724 31.4874C28.7349 31.3249 28.8638 31.132 28.9518 30.9197C29.0397 30.7074 29.085 30.4798 29.085 30.25V14.48L30.72 16.115C30.8621 16.2475 31.0502 16.3196 31.2445 16.3162C31.4388 16.3127 31.6242 16.234 31.7616 16.0966C31.899 15.9592 31.9777 15.7738 31.9811 15.5795C31.9846 15.3852 31.9125 15.1972 31.78 15.055ZM27.585 30.25C27.585 30.3163 27.5586 30.3799 27.5117 30.4268C27.4649 30.4737 27.4013 30.5 27.335 30.5H20.5C20.4337 30.5 20.3701 30.4737 20.3232 30.4268C20.2763 30.3799 20.25 30.3163 20.25 30.25V20.25C20.25 19.7859 20.0656 19.3408 19.7374 19.0126C19.4092 18.6844 18.9641 18.5 18.5 18.5H13.5C13.0358 18.5 12.5907 18.6844 12.2625 19.0126C11.9343 19.3408 11.75 19.7859 11.75 20.25V30.25C11.75 30.3163 11.7236 30.3799 11.6767 30.4268C11.6299 30.4737 11.5663 30.5 11.5 30.5H4.67247C4.60616 30.5 4.54258 30.4737 4.49569 30.4268C4.44881 30.3799 4.42247 30.3163 4.42247 30.25V12.975L15.8225 1.5725C15.8693 1.52594 15.9327 1.49981 15.9987 1.49981C16.0648 1.49981 16.1281 1.52594 16.175 1.5725L27.5825 12.98L27.585 30.25Z" fill="#F7A325"/>
</g>
<defs>
<clipPath id="clip0_1_201">
<rect width="32" height="32" fill="white"/>
</clipPath>
</defs>
</svg>
