<svg width="276" height="276" viewBox="0 0 276 276" fill="none" xmlns="http://www.w3.org/2000/svg">
<g clip-path="url(#clip0_0_1)">
<path d="M259 138C259 204.826 204.826 259 138 259C71.1735 259 17 204.826 17 138C17 71.1735 71.1735 17 138 17C204.826 17 259 71.1735 259 138Z" fill="#171921" stroke="#171921" stroke-width="4"/>
<path d="M107.25 76.5C105.405 76.5 104.175 77.73 104.175 79.575V94.95H171.825V79.575C171.825 77.73 170.595 76.5 168.75 76.5H107.25ZM131.85 82.65H144.15C145.995 82.65 147.225 83.88 147.225 85.725C147.225 87.57 145.995 88.8 144.15 88.8H131.85C130.005 88.8 128.775 87.57 128.775 85.725C128.775 83.88 130.005 82.65 131.85 82.65ZM104.175 101.1V174.9H171.825V101.1H104.175ZM104.175 181.05V196.425C104.175 198.27 105.405 199.5 107.25 199.5H168.75C170.595 199.5 171.825 198.27 171.825 196.425V181.05H104.175ZM138 185.662C140.46 185.662 142.613 187.815 142.613 190.275C142.613 192.735 140.46 194.887 138 194.887C135.54 194.887 133.388 192.735 133.388 190.275C133.388 187.815 135.54 185.662 138 185.662Z" fill="white"/>
<rect x="107.816" y="110.834" width="48.2945" height="10.5644" rx="5.28221" fill="#171921"/>
<rect x="107.816" y="122.908" width="28.6748" height="10.5644" rx="5.28221" fill="#171921"/>
<rect x="107.816" y="134.982" width="18.1104" height="10.5644" rx="5.28221" fill="#171921"/>
<path d="M155.484 155.507L153.991 155.096L153.616 154.438C156.043 152.812 157.912 150.347 158.746 147.314C160.599 140.573 156.637 133.606 149.895 131.753C143.154 129.899 136.187 133.862 134.334 140.603C132.48 147.345 136.443 154.312 143.184 156.165C146.217 156.999 149.291 156.652 151.926 155.407L152.3 156.066L151.893 157.549L158.706 169.501L162.273 167.472L155.484 155.507ZM144.217 152.409C139.55 151.126 136.807 146.302 138.089 141.636C139.372 136.969 144.196 134.226 148.863 135.508C153.529 136.791 156.273 141.616 154.99 146.282C153.707 150.948 148.883 153.692 144.217 152.409Z" fill="#F7A325"/>
</g>
<circle cx="138" cy="138" r="136" stroke="#F7A325" stroke-width="4"/>
<defs>
<clipPath id="clip0_0_1">
<rect width="246" height="246" fill="white" transform="translate(15 15)"/>
</clipPath>
</defs>
</svg>
